# xmcd
#
# Track frame offsets: 
#        150
#        22775
#        52340
#        74452
#        90072
#        105330
#        132580
#        150290
#        172017
#        193572
#        206547
#        223322
#
# Disc length: 3298 seconds
#
# Revision: 5
# Processed by: cddbd v1.5.2PL0 Copyright (c) Steve Scherf et al.
# Submitted via: ExactAudioCopy v0.99pb5
#
DISCID=a10ce00c
DTITLE=Johnny Copeland - Catch Up With The Blues
DYEAR=1993
DGENRE=Blues
TTITLE0=Catch Up With The Blues
TTITLE1=Rolling With The Punches
TTITLE2=Every Dog's Got His Day
TTITLE3=Cold, Cold Winter
TTITLE4=Making A Fool Of Myself
TTITLE5=Rain
TTITLE6=The Grammy Song
TTITLE7=Bye, Bye Baby
TTITLE8=Another Man's Wife
TTITLE9=I'm Creepin'
TTITLE10=Pedal To The Metal
TTITLE11=Life's Rainbow (Nature Song)
EXTD=YEAR: 1993
EXTT0=
EXTT1=
EXTT2=
EXTT3=
EXTT4=
EXTT5=
EXTT6=
EXTT7=
EXTT8=
EXTT9=
EXTT10=
EXTT11=
PLAYORDER=
